<mxfile host="app.diagrams.net" agent="Mozilla/5.0 (Windows NT 10.0; Win64; x64; rv:132.0) Gecko/20100101 Firefox/132.0" version="24.9.1">
  <diagram name="Page-1" id="adyc_1ysIJK6QlCeb6uv">
    <mxGraphModel dx="1018" dy="522" grid="1" gridSize="10" guides="1" tooltips="1" connect="1" arrows="1" fold="1" page="1" pageScale="1" pageWidth="850" pageHeight="1100" math="0" shadow="0">
      <root>
        <mxCell id="0" />
        <mxCell id="1" parent="0" />
        <mxCell id="KZw02JMo26ekDu1MrXCq-36" value="" style="edgeStyle=orthogonalEdgeStyle;rounded=0;orthogonalLoop=1;jettySize=auto;html=1;" edge="1" parent="1" source="KZw02JMo26ekDu1MrXCq-1" target="KZw02JMo26ekDu1MrXCq-35">
          <mxGeometry relative="1" as="geometry" />
        </mxCell>
        <mxCell id="KZw02JMo26ekDu1MrXCq-1" value="MainApp" style="swimlane;fontStyle=1;align=center;verticalAlign=top;childLayout=stackLayout;horizontal=1;startSize=26;horizontalStack=0;resizeParent=1;resizeParentMax=0;resizeLast=0;collapsible=1;marginBottom=0;whiteSpace=wrap;html=1;" vertex="1" parent="1">
          <mxGeometry x="600" y="40" width="160" height="86" as="geometry" />
        </mxCell>
        <mxCell id="KZw02JMo26ekDu1MrXCq-2" value="+ field: type" style="text;strokeColor=none;fillColor=none;align=left;verticalAlign=top;spacingLeft=4;spacingRight=4;overflow=hidden;rotatable=0;points=[[0,0.5],[1,0.5]];portConstraint=eastwest;whiteSpace=wrap;html=1;" vertex="1" parent="KZw02JMo26ekDu1MrXCq-1">
          <mxGeometry y="26" width="160" height="26" as="geometry" />
        </mxCell>
        <mxCell id="KZw02JMo26ekDu1MrXCq-3" value="" style="line;strokeWidth=1;fillColor=none;align=left;verticalAlign=middle;spacingTop=-1;spacingLeft=3;spacingRight=3;rotatable=0;labelPosition=right;points=[];portConstraint=eastwest;strokeColor=inherit;" vertex="1" parent="KZw02JMo26ekDu1MrXCq-1">
          <mxGeometry y="52" width="160" height="8" as="geometry" />
        </mxCell>
        <mxCell id="KZw02JMo26ekDu1MrXCq-4" value="+ method(type): type" style="text;strokeColor=none;fillColor=none;align=left;verticalAlign=top;spacingLeft=4;spacingRight=4;overflow=hidden;rotatable=0;points=[[0,0.5],[1,0.5]];portConstraint=eastwest;whiteSpace=wrap;html=1;" vertex="1" parent="KZw02JMo26ekDu1MrXCq-1">
          <mxGeometry y="60" width="160" height="26" as="geometry" />
        </mxCell>
        <mxCell id="KZw02JMo26ekDu1MrXCq-5" value="MainController" style="swimlane;fontStyle=1;align=center;verticalAlign=top;childLayout=stackLayout;horizontal=1;startSize=26;horizontalStack=0;resizeParent=1;resizeParentMax=0;resizeLast=0;collapsible=1;marginBottom=0;whiteSpace=wrap;html=1;" vertex="1" parent="1">
          <mxGeometry x="555" y="292" width="260" height="140" as="geometry" />
        </mxCell>
        <mxCell id="KZw02JMo26ekDu1MrXCq-6" value="&lt;div&gt;+ [All UI Elements]&lt;br&gt;&lt;/div&gt;&lt;div&gt;+ commandManager: commandManager&lt;/div&gt;&lt;div&gt;+ currentModule: DataStructureModule&lt;br&gt;&lt;/div&gt;" style="text;strokeColor=none;fillColor=none;align=left;verticalAlign=top;spacingLeft=4;spacingRight=4;overflow=hidden;rotatable=0;points=[[0,0.5],[1,0.5]];portConstraint=eastwest;whiteSpace=wrap;html=1;" vertex="1" parent="KZw02JMo26ekDu1MrXCq-5">
          <mxGeometry y="26" width="260" height="64" as="geometry" />
        </mxCell>
        <mxCell id="KZw02JMo26ekDu1MrXCq-7" value="" style="line;strokeWidth=1;fillColor=none;align=left;verticalAlign=middle;spacingTop=-1;spacingLeft=3;spacingRight=3;rotatable=0;labelPosition=right;points=[];portConstraint=eastwest;strokeColor=inherit;" vertex="1" parent="KZw02JMo26ekDu1MrXCq-5">
          <mxGeometry y="90" width="260" height="8" as="geometry" />
        </mxCell>
        <mxCell id="KZw02JMo26ekDu1MrXCq-8" value="&lt;div&gt;+ [Handler for all UI Elements]&lt;br&gt;&lt;/div&gt;&lt;div&gt;+ quit(): void&lt;/div&gt;" style="text;strokeColor=none;fillColor=none;align=left;verticalAlign=top;spacingLeft=4;spacingRight=4;overflow=hidden;rotatable=0;points=[[0,0.5],[1,0.5]];portConstraint=eastwest;whiteSpace=wrap;html=1;" vertex="1" parent="KZw02JMo26ekDu1MrXCq-5">
          <mxGeometry y="98" width="260" height="42" as="geometry" />
        </mxCell>
        <mxCell id="KZw02JMo26ekDu1MrXCq-9" value="&amp;lt;Interface&amp;gt; Command" style="swimlane;fontStyle=0;childLayout=stackLayout;horizontal=1;startSize=26;fillColor=none;horizontalStack=0;resizeParent=1;resizeParentMax=0;resizeLast=0;collapsible=1;marginBottom=0;whiteSpace=wrap;html=1;" vertex="1" parent="1">
          <mxGeometry x="180" y="40" width="140" height="78" as="geometry" />
        </mxCell>
        <mxCell id="KZw02JMo26ekDu1MrXCq-10" value="+ execute(): void" style="text;strokeColor=none;fillColor=none;align=left;verticalAlign=top;spacingLeft=4;spacingRight=4;overflow=hidden;rotatable=0;points=[[0,0.5],[1,0.5]];portConstraint=eastwest;whiteSpace=wrap;html=1;" vertex="1" parent="KZw02JMo26ekDu1MrXCq-9">
          <mxGeometry y="26" width="140" height="26" as="geometry" />
        </mxCell>
        <mxCell id="KZw02JMo26ekDu1MrXCq-11" value="+ undo(): void" style="text;strokeColor=none;fillColor=none;align=left;verticalAlign=top;spacingLeft=4;spacingRight=4;overflow=hidden;rotatable=0;points=[[0,0.5],[1,0.5]];portConstraint=eastwest;whiteSpace=wrap;html=1;" vertex="1" parent="KZw02JMo26ekDu1MrXCq-9">
          <mxGeometry y="52" width="140" height="26" as="geometry" />
        </mxCell>
        <mxCell id="KZw02JMo26ekDu1MrXCq-13" value="CommandManager" style="swimlane;fontStyle=1;align=center;verticalAlign=top;childLayout=stackLayout;horizontal=1;startSize=26;horizontalStack=0;resizeParent=1;resizeParentMax=0;resizeLast=0;collapsible=1;marginBottom=0;whiteSpace=wrap;html=1;" vertex="1" parent="1">
          <mxGeometry x="340" y="160" width="160" height="82" as="geometry" />
        </mxCell>
        <mxCell id="KZw02JMo26ekDu1MrXCq-16" value="&lt;div&gt;+ execute(Command): void&lt;/div&gt;&lt;div&gt;+ undo(Command): void&lt;/div&gt;&lt;div&gt;+ redo(Command): void&lt;br&gt;&lt;/div&gt;" style="text;strokeColor=none;fillColor=none;align=left;verticalAlign=top;spacingLeft=4;spacingRight=4;overflow=hidden;rotatable=0;points=[[0,0.5],[1,0.5]];portConstraint=eastwest;whiteSpace=wrap;html=1;" vertex="1" parent="KZw02JMo26ekDu1MrXCq-13">
          <mxGeometry y="26" width="160" height="56" as="geometry" />
        </mxCell>
        <mxCell id="KZw02JMo26ekDu1MrXCq-17" value="" style="endArrow=block;endFill=1;html=1;edgeStyle=orthogonalEdgeStyle;align=left;verticalAlign=top;rounded=0;exitX=0.5;exitY=0;exitDx=0;exitDy=0;entryX=1;entryY=0.5;entryDx=0;entryDy=0;" edge="1" parent="1" source="KZw02JMo26ekDu1MrXCq-13" target="KZw02JMo26ekDu1MrXCq-10">
          <mxGeometry x="-1" relative="1" as="geometry">
            <mxPoint x="470" y="200" as="sourcePoint" />
            <mxPoint x="630" y="200" as="targetPoint" />
          </mxGeometry>
        </mxCell>
        <mxCell id="KZw02JMo26ekDu1MrXCq-19" value="&amp;lt;Interface&amp;gt; DataStructureModule" style="swimlane;fontStyle=0;childLayout=stackLayout;horizontal=1;startSize=26;fillColor=none;horizontalStack=0;resizeParent=1;resizeParentMax=0;resizeLast=0;collapsible=1;marginBottom=0;whiteSpace=wrap;html=1;" vertex="1" parent="1">
          <mxGeometry x="140" y="300" width="200" height="78" as="geometry" />
        </mxCell>
        <mxCell id="KZw02JMo26ekDu1MrXCq-20" value="+ getView(): Pane" style="text;strokeColor=none;fillColor=none;align=left;verticalAlign=top;spacingLeft=4;spacingRight=4;overflow=hidden;rotatable=0;points=[[0,0.5],[1,0.5]];portConstraint=eastwest;whiteSpace=wrap;html=1;" vertex="1" parent="KZw02JMo26ekDu1MrXCq-19">
          <mxGeometry y="26" width="200" height="26" as="geometry" />
        </mxCell>
        <mxCell id="KZw02JMo26ekDu1MrXCq-21" value="+ executeCommand(String): void" style="text;strokeColor=none;fillColor=none;align=left;verticalAlign=top;spacingLeft=4;spacingRight=4;overflow=hidden;rotatable=0;points=[[0,0.5],[1,0.5]];portConstraint=eastwest;whiteSpace=wrap;html=1;" vertex="1" parent="KZw02JMo26ekDu1MrXCq-19">
          <mxGeometry y="52" width="200" height="26" as="geometry" />
        </mxCell>
        <mxCell id="KZw02JMo26ekDu1MrXCq-24" value="LinkedListModule" style="swimlane;fontStyle=1;align=center;verticalAlign=top;childLayout=stackLayout;horizontal=1;startSize=26;horizontalStack=0;resizeParent=1;resizeParentMax=0;resizeLast=0;collapsible=1;marginBottom=0;whiteSpace=wrap;html=1;" vertex="1" parent="1">
          <mxGeometry y="420" width="130" height="52" as="geometry" />
        </mxCell>
        <mxCell id="KZw02JMo26ekDu1MrXCq-25" value="+ Pane: view" style="text;strokeColor=none;fillColor=none;align=left;verticalAlign=top;spacingLeft=4;spacingRight=4;overflow=hidden;rotatable=0;points=[[0,0.5],[1,0.5]];portConstraint=eastwest;whiteSpace=wrap;html=1;" vertex="1" parent="KZw02JMo26ekDu1MrXCq-24">
          <mxGeometry y="26" width="130" height="26" as="geometry" />
        </mxCell>
        <mxCell id="KZw02JMo26ekDu1MrXCq-28" value="LinkedListModule" style="swimlane;fontStyle=1;align=center;verticalAlign=top;childLayout=stackLayout;horizontal=1;startSize=26;horizontalStack=0;resizeParent=1;resizeParentMax=0;resizeLast=0;collapsible=1;marginBottom=0;whiteSpace=wrap;html=1;" vertex="1" parent="1">
          <mxGeometry x="150" y="420" width="130" height="52" as="geometry" />
        </mxCell>
        <mxCell id="KZw02JMo26ekDu1MrXCq-29" value="+ Pane: view" style="text;strokeColor=none;fillColor=none;align=left;verticalAlign=top;spacingLeft=4;spacingRight=4;overflow=hidden;rotatable=0;points=[[0,0.5],[1,0.5]];portConstraint=eastwest;whiteSpace=wrap;html=1;" vertex="1" parent="KZw02JMo26ekDu1MrXCq-28">
          <mxGeometry y="26" width="130" height="26" as="geometry" />
        </mxCell>
        <mxCell id="KZw02JMo26ekDu1MrXCq-30" value="LinkedListModule" style="swimlane;fontStyle=1;align=center;verticalAlign=top;childLayout=stackLayout;horizontal=1;startSize=26;horizontalStack=0;resizeParent=1;resizeParentMax=0;resizeLast=0;collapsible=1;marginBottom=0;whiteSpace=wrap;html=1;" vertex="1" parent="1">
          <mxGeometry x="300" y="420" width="130" height="52" as="geometry" />
        </mxCell>
        <mxCell id="KZw02JMo26ekDu1MrXCq-31" value="+ Pane: view" style="text;strokeColor=none;fillColor=none;align=left;verticalAlign=top;spacingLeft=4;spacingRight=4;overflow=hidden;rotatable=0;points=[[0,0.5],[1,0.5]];portConstraint=eastwest;whiteSpace=wrap;html=1;" vertex="1" parent="KZw02JMo26ekDu1MrXCq-30">
          <mxGeometry y="26" width="130" height="26" as="geometry" />
        </mxCell>
        <mxCell id="KZw02JMo26ekDu1MrXCq-32" value="" style="endArrow=block;dashed=1;endFill=0;endSize=12;html=1;rounded=0;exitX=0.5;exitY=0;exitDx=0;exitDy=0;entryX=-0.015;entryY=1.096;entryDx=0;entryDy=0;entryPerimeter=0;" edge="1" parent="1" source="KZw02JMo26ekDu1MrXCq-24" target="KZw02JMo26ekDu1MrXCq-21">
          <mxGeometry width="160" relative="1" as="geometry">
            <mxPoint x="290" y="380" as="sourcePoint" />
            <mxPoint x="450" y="380" as="targetPoint" />
          </mxGeometry>
        </mxCell>
        <mxCell id="KZw02JMo26ekDu1MrXCq-33" value="" style="endArrow=block;dashed=1;endFill=0;endSize=12;html=1;rounded=0;exitX=0.5;exitY=0;exitDx=0;exitDy=0;entryX=0.4;entryY=1;entryDx=0;entryDy=0;entryPerimeter=0;" edge="1" parent="1" source="KZw02JMo26ekDu1MrXCq-28" target="KZw02JMo26ekDu1MrXCq-21">
          <mxGeometry width="160" relative="1" as="geometry">
            <mxPoint x="75" y="430" as="sourcePoint" />
            <mxPoint x="147" y="390" as="targetPoint" />
            <Array as="points" />
          </mxGeometry>
        </mxCell>
        <mxCell id="KZw02JMo26ekDu1MrXCq-34" value="" style="endArrow=block;dashed=1;endFill=0;endSize=12;html=1;rounded=0;exitX=0.5;exitY=0;exitDx=0;exitDy=0;entryX=1.002;entryY=1.096;entryDx=0;entryDy=0;entryPerimeter=0;" edge="1" parent="1" source="KZw02JMo26ekDu1MrXCq-30" target="KZw02JMo26ekDu1MrXCq-21">
          <mxGeometry width="160" relative="1" as="geometry">
            <mxPoint x="268" y="418" as="sourcePoint" />
            <mxPoint x="340" y="378" as="targetPoint" />
          </mxGeometry>
        </mxCell>
        <mxCell id="KZw02JMo26ekDu1MrXCq-35" value="MainView.fxml" style="html=1;whiteSpace=wrap;" vertex="1" parent="1">
          <mxGeometry x="625" y="176" width="110" height="50" as="geometry" />
        </mxCell>
        <mxCell id="KZw02JMo26ekDu1MrXCq-38" style="edgeStyle=orthogonalEdgeStyle;rounded=0;orthogonalLoop=1;jettySize=auto;html=1;entryX=1.018;entryY=0.229;entryDx=0;entryDy=0;entryPerimeter=0;exitX=-0.005;exitY=0.221;exitDx=0;exitDy=0;exitPerimeter=0;" edge="1" parent="1" source="KZw02JMo26ekDu1MrXCq-6" target="KZw02JMo26ekDu1MrXCq-16">
          <mxGeometry relative="1" as="geometry">
            <mxPoint x="550" y="330" as="sourcePoint" />
          </mxGeometry>
        </mxCell>
        <mxCell id="KZw02JMo26ekDu1MrXCq-39" style="edgeStyle=orthogonalEdgeStyle;rounded=0;orthogonalLoop=1;jettySize=auto;html=1;" edge="1" parent="1" source="KZw02JMo26ekDu1MrXCq-6">
          <mxGeometry relative="1" as="geometry">
            <mxPoint x="340" y="350" as="targetPoint" />
          </mxGeometry>
        </mxCell>
        <mxCell id="KZw02JMo26ekDu1MrXCq-41" style="edgeStyle=orthogonalEdgeStyle;rounded=0;orthogonalLoop=1;jettySize=auto;html=1;entryX=0.481;entryY=-0.014;entryDx=0;entryDy=0;entryPerimeter=0;" edge="1" parent="1" source="KZw02JMo26ekDu1MrXCq-35" target="KZw02JMo26ekDu1MrXCq-5">
          <mxGeometry relative="1" as="geometry" />
        </mxCell>
        <mxCell id="KZw02JMo26ekDu1MrXCq-42" style="edgeStyle=orthogonalEdgeStyle;rounded=0;orthogonalLoop=1;jettySize=auto;html=1;" edge="1" parent="1" source="KZw02JMo26ekDu1MrXCq-19">
          <mxGeometry relative="1" as="geometry">
            <mxPoint x="240" y="119" as="targetPoint" />
          </mxGeometry>
        </mxCell>
      </root>
    </mxGraphModel>
  </diagram>
</mxfile>
